<?xml version="1.0" encoding="utf-8" standalone="no"?>
<!DOCTYPE svg PUBLIC "-//W3C//DTD SVG 1.1//EN"
  "http://www.w3.org/Graphics/SVG/1.1/DTD/svg11.dtd">
<svg xmlns:xlink="http://www.w3.org/1999/xlink" width="720pt" height="22.5pt" viewBox="0 0 720 22.5" xmlns="http://www.w3.org/2000/svg" version="1.1">
 <metadata>
  <rdf:RDF xmlns:dc="http://purl.org/dc/elements/1.1/" xmlns:cc="http://creativecommons.org/ns#" xmlns:rdf="http://www.w3.org/1999/02/22-rdf-syntax-ns#">
   <cc:Work>
    <dc:type rdf:resource="http://purl.org/dc/dcmitype/StillImage"/>
    <dc:date>2026-05-31T12:38:09.046288</dc:date>
    <dc:format>image/svg+xml</dc:format>
    <dc:creator>
     <cc:Agent>
      <dc:title>Matplotlib v3.10.8, https://matplotlib.org/</dc:title>
     </cc:Agent>
    </dc:creator>
   </cc:Work>
  </rdf:RDF>
 </metadata>
 <defs>
  <style type="text/css">*{stroke-linejoin: round; stroke-linecap: butt}</style>
 </defs>
 <g id="figure_1">
  <g id="patch_1">
   <path d="M 0 22.5 
L 720 22.5 
L 720 0 
L 0 0 
z
" style="fill: #ffffff"/>
  </g>
  <g id="axes_1">
   <g id="patch_2">
    <path d="M 63.800422 20.547521 
Q 136.856371 20.547521 208.794286 20.547521 
" clip-path="url(#pe3456caf21)" style="fill: none; stroke: #000000; stroke-linecap: round"/>
    <path d="M 205.994286 19.147521 
L 208.794286 20.547521 
L 205.994286 21.947521 
z
" clip-path="url(#pe3456caf21)" style="stroke: #000000; stroke-linecap: round"/>
   </g>
   <g id="patch_3">
    <path d="M 209.918586 1.952479 
Q 136.862637 1.952479 64.924722 1.952479 
" clip-path="url(#pe3456caf21)" style="fill: none; stroke: #000000; stroke-linecap: round"/>
    <path d="M 67.724722 3.352479 
L 64.924722 1.952479 
L 67.724722 0.552479 
z
" clip-path="url(#pe3456caf21)" style="stroke: #000000; stroke-linecap: round"/>
   </g>
   <g id="patch_4">
    <path d="M 212.560753 20.547521 
Q 285.616702 20.547521 357.554617 20.547521 
" clip-path="url(#pe3456caf21)" style="fill: none; stroke: #000000; stroke-linecap: round"/>
    <path d="M 354.754617 19.147521 
L 357.554617 20.547521 
L 354.754617 21.947521 
z
" clip-path="url(#pe3456caf21)" style="stroke: #000000; stroke-linecap: round"/>
   </g>
   <g id="patch_5">
    <path d="M 358.678917 1.952479 
Q 285.622968 1.952479 213.685053 1.952479 
" clip-path="url(#pe3456caf21)" style="fill: none; stroke: #000000; stroke-linecap: round"/>
    <path d="M 216.485053 3.352479 
L 213.685053 1.952479 
L 216.485053 0.552479 
z
" clip-path="url(#pe3456caf21)" style="stroke: #000000; stroke-linecap: round"/>
   </g>
   <g id="patch_6">
    <path d="M 361.321083 20.547521 
Q 434.377032 20.547521 506.314947 20.547521 
" clip-path="url(#pe3456caf21)" style="fill: none; stroke: #000000; stroke-linecap: round"/>
    <path d="M 503.514947 19.147521 
L 506.314947 20.547521 
L 503.514947 21.947521 
z
" clip-path="url(#pe3456caf21)" style="stroke: #000000; stroke-linecap: round"/>
   </g>
   <g id="patch_7">
    <path d="M 507.439247 1.952479 
Q 434.383298 1.952479 362.445383 1.952479 
" clip-path="url(#pe3456caf21)" style="fill: none; stroke: #000000; stroke-linecap: round"/>
    <path d="M 365.245383 3.352479 
L 362.445383 1.952479 
L 365.245383 0.552479 
z
" clip-path="url(#pe3456caf21)" style="stroke: #000000; stroke-linecap: round"/>
   </g>
   <g id="patch_8">
    <path d="M 510.081414 20.547521 
Q 583.137363 20.547521 655.075278 20.547521 
" clip-path="url(#pe3456caf21)" style="fill: none; stroke: #000000; stroke-linecap: round"/>
    <path d="M 652.275278 19.147521 
L 655.075278 20.547521 
L 652.275278 21.947521 
z
" clip-path="url(#pe3456caf21)" style="stroke: #000000; stroke-linecap: round"/>
   </g>
   <g id="patch_9">
    <path d="M 656.199578 1.952479 
Q 583.143629 1.952479 511.205714 1.952479 
" clip-path="url(#pe3456caf21)" style="fill: none; stroke: #000000; stroke-linecap: round"/>
    <path d="M 514.005714 3.352479 
L 511.205714 1.952479 
L 514.005714 0.552479 
z
" clip-path="url(#pe3456caf21)" style="stroke: #000000; stroke-linecap: round"/>
   </g>
   <g id="PathCollection_1">
    <defs>
     <path id="C0_0_47a1eab976" d="M 0 1.322876 
C 0.350831 1.322876 0.68734 1.183489 0.935414 0.935414 
C 1.183489 0.68734 1.322876 0.350831 1.322876 -0 
C 1.322876 -0.350831 1.183489 -0.68734 0.935414 -0.935414 
C 0.68734 -1.183489 0.350831 -1.322876 0 -1.322876 
C -0.350831 -1.322876 -0.68734 -1.183489 -0.935414 -0.935414 
C -1.183489 -0.68734 -1.322876 -0.350831 -1.322876 0 
C -1.322876 0.350831 -1.183489 0.68734 -0.935414 0.935414 
C -0.68734 1.183489 -0.350831 1.322876 0 1.322876 
z
"/>
    </defs>
    <g clip-path="url(#pe3456caf21)">
     <use xlink:href="#C0_0_47a1eab976" x="62.479339" y="1.952479" style="stroke: #000000"/>
    </g>
    <g clip-path="url(#pe3456caf21)">
     <use xlink:href="#C0_0_47a1eab976" x="62.479339" y="20.547521" style="stroke: #000000"/>
    </g>
    <g clip-path="url(#pe3456caf21)">
     <use xlink:href="#C0_0_47a1eab976" x="211.239669" y="1.952479" style="stroke: #000000"/>
    </g>
    <g clip-path="url(#pe3456caf21)">
     <use xlink:href="#C0_0_47a1eab976" x="211.239669" y="20.547521" style="fill: #ff0000; stroke: #ff0000"/>
    </g>
    <g clip-path="url(#pe3456caf21)">
     <use xlink:href="#C0_0_47a1eab976" x="360" y="1.952479" style="stroke: #000000"/>
    </g>
    <g clip-path="url(#pe3456caf21)">
     <use xlink:href="#C0_0_47a1eab976" x="360" y="20.547521" style="fill: #ff0000; stroke: #ff0000"/>
    </g>
    <g clip-path="url(#pe3456caf21)">
     <use xlink:href="#C0_0_47a1eab976" x="508.760331" y="1.952479" style="stroke: #000000"/>
    </g>
    <g clip-path="url(#pe3456caf21)">
     <use xlink:href="#C0_0_47a1eab976" x="508.760331" y="20.547521" style="fill: #ff0000; stroke: #ff0000"/>
    </g>
    <g clip-path="url(#pe3456caf21)">
     <use xlink:href="#C0_0_47a1eab976" x="657.520661" y="1.952479" style="stroke: #000000"/>
    </g>
    <g clip-path="url(#pe3456caf21)">
     <use xlink:href="#C0_0_47a1eab976" x="657.520661" y="20.547521" style="stroke: #000000"/>
    </g>
   </g>
  </g>
 </g>
 <defs>
  <clipPath id="pe3456caf21">
   <rect x="0" y="0" width="720" height="22.5"/>
  </clipPath>
 </defs>
</svg>
