<?xml version="1.0" encoding="utf-8" standalone="no"?>
<!DOCTYPE svg PUBLIC "-//W3C//DTD SVG 1.1//EN"
  "http://www.w3.org/Graphics/SVG/1.1/DTD/svg11.dtd">
<svg xmlns:xlink="http://www.w3.org/1999/xlink" width="720pt" height="123.099429pt" viewBox="0 0 720 123.099429" xmlns="http://www.w3.org/2000/svg" version="1.1">
 <metadata>
  <rdf:RDF xmlns:dc="http://purl.org/dc/elements/1.1/" xmlns:cc="http://creativecommons.org/ns#" xmlns:rdf="http://www.w3.org/1999/02/22-rdf-syntax-ns#">
   <cc:Work>
    <dc:type rdf:resource="http://purl.org/dc/dcmitype/StillImage"/>
    <dc:date>2026-05-17T14:18:20.212534</dc:date>
    <dc:format>image/svg+xml</dc:format>
    <dc:creator>
     <cc:Agent>
      <dc:title>Matplotlib v3.10.8, https://matplotlib.org/</dc:title>
     </cc:Agent>
    </dc:creator>
   </cc:Work>
  </rdf:RDF>
 </metadata>
 <defs>
  <style type="text/css">*{stroke-linejoin: round; stroke-linecap: butt}</style>
 </defs>
 <g id="figure_1">
  <g id="patch_1">
   <path d="M 0 123.099429 
L 720 123.099429 
L 720 0 
L 0 0 
z
" style="fill: #ffffff"/>
  </g>
  <g id="axes_1">
   <g id="patch_2">
    <path d="M 401.182517 56.236845 
Q 359.99996 56.236845 319.935437 56.236845 
" clip-path="url(#p2d94eae8eb)" style="fill: none; stroke: #000000; stroke-linecap: round"/>
    <path d="M 322.735437 57.636845 
L 319.935437 56.236845 
L 322.735437 54.836845 
z
" clip-path="url(#p2d94eae8eb)" style="stroke: #000000; stroke-linecap: round"/>
   </g>
   <g id="patch_3">
    <path d="M 403.197695 57.361156 
Q 403.939507 58.561638 404.093606 58.811018 
" clip-path="url(#p2d94eae8eb)" style="fill: none; stroke: #000000; stroke-linecap: round"/>
    <path d="M 403.812708 55.693151 
L 404.093606 58.811018 
L 401.430773 57.165016 
z
" clip-path="url(#p2d94eae8eb)" style="stroke: #000000; stroke-linecap: round"/>
   </g>
   <g id="patch_4">
    <path d="M 403.823386 66.862583 
Q 445.005943 66.862583 485.070466 66.862583 
" clip-path="url(#p2d94eae8eb)" style="fill: none; stroke: #000000; stroke-linecap: round"/>
    <path d="M 482.270466 65.462583 
L 485.070466 66.862583 
L 482.270466 68.262583 
z
" clip-path="url(#p2d94eae8eb)" style="stroke: #000000; stroke-linecap: round"/>
   </g>
   <g id="patch_5">
    <path d="M 401.304857 50.712039 
Q 360.062095 53.430858 319.934946 56.076133 
" clip-path="url(#p2d94eae8eb)" style="fill: none; stroke: #000000; stroke-linecap: round"/>
    <path d="M 322.820973 57.288918 
L 319.934946 56.076133 
L 322.63679 54.494983 
z
" clip-path="url(#p2d94eae8eb)" style="stroke: #000000; stroke-linecap: round"/>
   </g>
   <g id="patch_6">
    <path d="M 402.617119 51.944973 
Q 402.565094 58.742756 402.521626 64.422538 
" clip-path="url(#p2d94eae8eb)" style="fill: none; stroke: #000000; stroke-linecap: round"/>
    <path d="M 403.943013 61.633334 
L 402.521626 64.422538 
L 401.143095 61.611906 
z
" clip-path="url(#p2d94eae8eb)" style="stroke: #000000; stroke-linecap: round"/>
   </g>
   <g id="patch_7">
    <path d="M 406.601167 60.381624 
Q 446.38271 43.903535 485.131326 27.853301 
" clip-path="url(#p2d94eae8eb)" style="fill: none; stroke: #000000; stroke-linecap: round"/>
    <path d="M 482.008706 27.631385 
L 485.131326 27.853301 
L 483.080221 30.218247 
z
" clip-path="url(#p2d94eae8eb)" style="stroke: #000000; stroke-linecap: round"/>
   </g>
   <g id="patch_8">
    <path d="M 316.176614 56.236845 
Q 274.994057 56.236845 234.929534 56.236845 
" clip-path="url(#p2d94eae8eb)" style="fill: none; stroke: #000000; stroke-linecap: round"/>
    <path d="M 237.729534 57.636845 
L 234.929534 56.236845 
L 237.729534 54.836845 
z
" clip-path="url(#p2d94eae8eb)" style="stroke: #000000; stroke-linecap: round"/>
   </g>
   <g id="patch_9">
    <path d="M 317.507151 57.556953 
Q 317.559176 64.354736 317.602644 70.034518 
" clip-path="url(#p2d94eae8eb)" style="fill: none; stroke: #000000; stroke-linecap: round"/>
    <path d="M 318.981175 67.223886 
L 317.602644 70.034518 
L 316.181257 67.245314 
z
" clip-path="url(#p2d94eae8eb)" style="stroke: #000000; stroke-linecap: round"/>
   </g>
   <g id="patch_10">
    <path d="M 318.819222 66.772703 
Q 361.439228 63.875424 402.943775 61.053974 
" clip-path="url(#p2d94eae8eb)" style="fill: none; stroke: #000000; stroke-linecap: round"/>
    <path d="M 400.05527 59.847101 
L 402.943775 61.053974 
L 400.245174 62.640654 
z
" clip-path="url(#p2d94eae8eb)" style="stroke: #000000; stroke-linecap: round"/>
   </g>
   <g id="patch_11">
    <path d="M 318.817483 66.862583 
Q 360.00004 66.862583 400.064563 66.862583 
" clip-path="url(#p2d94eae8eb)" style="fill: none; stroke: #000000; stroke-linecap: round"/>
    <path d="M 397.264563 65.462583 
L 400.064563 66.862583 
L 397.264563 68.262583 
z
" clip-path="url(#p2d94eae8eb)" style="stroke: #000000; stroke-linecap: round"/>
   </g>
   <g id="patch_12">
    <path d="M 319.049288 62.121008 
Q 276.429282 59.22373 234.924736 56.402279 
" clip-path="url(#p2d94eae8eb)" style="fill: none; stroke: #000000; stroke-linecap: round"/>
    <path d="M 237.623336 57.988959 
L 234.924736 56.402279 
L 237.81324 55.195407 
z
" clip-path="url(#p2d94eae8eb)" style="stroke: #000000; stroke-linecap: round"/>
   </g>
   <g id="patch_13">
    <path d="M 319.676718 63.3352 
Q 318.934907 64.535681 318.780808 64.785061 
" clip-path="url(#p2d94eae8eb)" style="fill: none; stroke: #000000; stroke-linecap: round"/>
    <path d="M 321.44364 63.139059 
L 318.780808 64.785061 
L 319.061705 61.667194 
z
" clip-path="url(#p2d94eae8eb)" style="stroke: #000000; stroke-linecap: round"/>
   </g>
   <g id="patch_14">
    <path d="M 318.84512 72.98148 
Q 358.626664 89.459568 397.375279 105.509802 
" clip-path="url(#p2d94eae8eb)" style="fill: none; stroke: #000000; stroke-linecap: round"/>
    <path d="M 395.324175 103.144856 
L 397.375279 105.509802 
L 394.25266 105.731718 
z
" clip-path="url(#p2d94eae8eb)" style="stroke: #000000; stroke-linecap: round"/>
   </g>
   <g id="patch_15">
    <path d="M 486.18842 56.236845 
Q 445.005863 56.236845 404.94134 56.236845 
" clip-path="url(#p2d94eae8eb)" style="fill: none; stroke: #000000; stroke-linecap: round"/>
    <path d="M 407.74134 57.636845 
L 404.94134 56.236845 
L 407.74134 54.836845 
z
" clip-path="url(#p2d94eae8eb)" style="stroke: #000000; stroke-linecap: round"/>
   </g>
   <g id="patch_16">
    <path d="M 488.829289 66.862583 
Q 530.011846 66.862583 570.076369 66.862583 
" clip-path="url(#p2d94eae8eb)" style="fill: none; stroke: #000000; stroke-linecap: round"/>
    <path d="M 567.276369 65.462583 
L 570.076369 66.862583 
L 567.276369 68.262583 
z
" clip-path="url(#p2d94eae8eb)" style="stroke: #000000; stroke-linecap: round"/>
   </g>
   <g id="patch_17">
    <path d="M 571.194323 56.236845 
Q 530.011766 56.236845 489.947244 56.236845 
" clip-path="url(#p2d94eae8eb)" style="fill: none; stroke: #000000; stroke-linecap: round"/>
    <path d="M 492.747244 57.636845 
L 489.947244 56.236845 
L 492.747244 54.836845 
z
" clip-path="url(#p2d94eae8eb)" style="stroke: #000000; stroke-linecap: round"/>
   </g>
   <g id="patch_18">
    <path d="M 573.835193 66.862583 
Q 615.01775 66.862583 655.082272 66.862583 
" clip-path="url(#p2d94eae8eb)" style="fill: none; stroke: #000000; stroke-linecap: round"/>
    <path d="M 652.282272 65.462583 
L 655.082272 66.862583 
L 652.282272 68.262583 
z
" clip-path="url(#p2d94eae8eb)" style="stroke: #000000; stroke-linecap: round"/>
   </g>
   <g id="patch_19">
    <path d="M 483.41064 17.16321 
Q 443.629096 33.641298 404.880481 49.691533 
" clip-path="url(#p2d94eae8eb)" style="fill: none; stroke: #000000; stroke-linecap: round"/>
    <path d="M 408.0031 49.913448 
L 404.880481 49.691533 
L 406.931585 47.326586 
z
" clip-path="url(#p2d94eae8eb)" style="stroke: #000000; stroke-linecap: round"/>
   </g>
   <g id="patch_20">
    <path d="M 488.70695 26.832794 
Q 529.949711 24.113942 570.07686 21.468634 
" clip-path="url(#p2d94eae8eb)" style="fill: none; stroke: #000000; stroke-linecap: round"/>
    <path d="M 567.190832 20.255851 
L 570.07686 21.468634 
L 567.375017 23.049786 
z
" clip-path="url(#p2d94eae8eb)" style="stroke: #000000; stroke-linecap: round"/>
   </g>
   <g id="patch_21">
    <path d="M 571.192584 10.772063 
Q 528.572578 13.669375 487.068032 16.490858 
" clip-path="url(#p2d94eae8eb)" style="fill: none; stroke: #000000; stroke-linecap: round"/>
    <path d="M 489.956537 17.697729 
L 487.068032 16.490858 
L 489.766631 14.904176 
z
" clip-path="url(#p2d94eae8eb)" style="stroke: #000000; stroke-linecap: round"/>
   </g>
   <g id="patch_22">
    <path d="M 573.835193 21.30792 
Q 615.01775 21.30792 655.082272 21.30792 
" clip-path="url(#p2d94eae8eb)" style="fill: none; stroke: #000000; stroke-linecap: round"/>
    <path d="M 652.282272 19.90792 
L 655.082272 21.30792 
L 652.282272 22.70792 
z
" clip-path="url(#p2d94eae8eb)" style="stroke: #000000; stroke-linecap: round"/>
   </g>
   <g id="patch_23">
    <path d="M 401.15488 95.672544 
Q 361.373336 79.194456 322.624721 63.144221 
" clip-path="url(#p2d94eae8eb)" style="fill: none; stroke: #000000; stroke-linecap: round"/>
    <path d="M 324.675825 65.509168 
L 322.624721 63.144221 
L 325.74734 62.922306 
z
" clip-path="url(#p2d94eae8eb)" style="stroke: #000000; stroke-linecap: round"/>
   </g>
   <g id="patch_24">
    <path d="M 400.950712 106.533016 
Q 443.570718 109.430328 485.075264 112.251811 
" clip-path="url(#p2d94eae8eb)" style="fill: none; stroke: #000000; stroke-linecap: round"/>
    <path d="M 482.376665 110.665129 
L 485.075264 112.251811 
L 482.186759 113.458681 
z
" clip-path="url(#p2d94eae8eb)" style="stroke: #000000; stroke-linecap: round"/>
   </g>
   <g id="patch_25">
    <path d="M 486.18649 101.704334 
Q 444.943728 98.985482 404.816579 96.340174 
" clip-path="url(#p2d94eae8eb)" style="fill: none; stroke: #000000; stroke-linecap: round"/>
    <path d="M 407.518422 97.921327 
L 404.816579 96.340174 
L 407.702607 95.127391 
z
" clip-path="url(#p2d94eae8eb)" style="stroke: #000000; stroke-linecap: round"/>
   </g>
   <g id="patch_26">
    <path d="M 488.829289 112.417247 
Q 530.011846 112.417247 570.076369 112.417247 
" clip-path="url(#p2d94eae8eb)" style="fill: none; stroke: #000000; stroke-linecap: round"/>
    <path d="M 567.276369 111.017247 
L 570.076369 112.417247 
L 567.276369 113.817247 
z
" clip-path="url(#p2d94eae8eb)" style="stroke: #000000; stroke-linecap: round"/>
   </g>
   <g id="patch_27">
    <path d="M 233.81351 66.949757 
Q 275.056272 69.668576 315.183421 72.313852 
" clip-path="url(#p2d94eae8eb)" style="fill: none; stroke: #000000; stroke-linecap: round"/>
    <path d="M 312.481577 70.732701 
L 315.183421 72.313852 
L 312.297394 73.526637 
z
" clip-path="url(#p2d94eae8eb)" style="stroke: #000000; stroke-linecap: round"/>
   </g>
   <g id="patch_28">
    <path d="M 233.81158 66.862583 
Q 274.994137 66.862583 315.05866 66.862583 
" clip-path="url(#p2d94eae8eb)" style="fill: none; stroke: #000000; stroke-linecap: round"/>
    <path d="M 312.25866 65.462583 
L 315.05866 66.862583 
L 312.25866 68.262583 
z
" clip-path="url(#p2d94eae8eb)" style="stroke: #000000; stroke-linecap: round"/>
   </g>
   <g id="patch_29">
    <path d="M 231.170711 56.236845 
Q 189.988154 56.236845 149.923631 56.236845 
" clip-path="url(#p2d94eae8eb)" style="fill: none; stroke: #000000; stroke-linecap: round"/>
    <path d="M 152.723631 57.636845 
L 149.923631 56.236845 
L 152.723631 54.836845 
z
" clip-path="url(#p2d94eae8eb)" style="stroke: #000000; stroke-linecap: round"/>
   </g>
   <g id="patch_30">
    <path d="M 571.194323 101.791509 
Q 530.011766 101.791509 489.947244 101.791509 
" clip-path="url(#p2d94eae8eb)" style="fill: none; stroke: #000000; stroke-linecap: round"/>
    <path d="M 492.747244 103.191509 
L 489.947244 101.791509 
L 492.747244 100.391509 
z
" clip-path="url(#p2d94eae8eb)" style="stroke: #000000; stroke-linecap: round"/>
   </g>
   <g id="patch_31">
    <path d="M 656.200226 56.236845 
Q 615.01767 56.236845 574.953147 56.236845 
" clip-path="url(#p2d94eae8eb)" style="fill: none; stroke: #000000; stroke-linecap: round"/>
    <path d="M 577.753147 57.636845 
L 574.953147 56.236845 
L 577.753147 54.836845 
z
" clip-path="url(#p2d94eae8eb)" style="stroke: #000000; stroke-linecap: round"/>
   </g>
   <g id="patch_32">
    <path d="M 656.200226 10.682182 
Q 615.01767 10.682182 574.953147 10.682182 
" clip-path="url(#p2d94eae8eb)" style="fill: none; stroke: #000000; stroke-linecap: round"/>
    <path d="M 577.753147 12.082182 
L 574.953147 10.682182 
L 577.753147 9.282182 
z
" clip-path="url(#p2d94eae8eb)" style="stroke: #000000; stroke-linecap: round"/>
   </g>
   <g id="patch_33">
    <path d="M 148.805677 66.862583 
Q 189.988234 66.862583 230.052756 66.862583 
" clip-path="url(#p2d94eae8eb)" style="fill: none; stroke: #000000; stroke-linecap: round"/>
    <path d="M 227.252756 65.462583 
L 230.052756 66.862583 
L 227.252756 68.262583 
z
" clip-path="url(#p2d94eae8eb)" style="stroke: #000000; stroke-linecap: round"/>
   </g>
   <g id="patch_34">
    <path d="M 146.164807 56.236845 
Q 104.98225 56.236845 64.917728 56.236845 
" clip-path="url(#p2d94eae8eb)" style="fill: none; stroke: #000000; stroke-linecap: round"/>
    <path d="M 67.717728 57.636845 
L 64.917728 56.236845 
L 67.717728 54.836845 
z
" clip-path="url(#p2d94eae8eb)" style="stroke: #000000; stroke-linecap: round"/>
   </g>
   <g id="patch_35">
    <path d="M 63.799774 66.862583 
Q 104.98233 66.862583 145.046853 66.862583 
" clip-path="url(#p2d94eae8eb)" style="fill: none; stroke: #000000; stroke-linecap: round"/>
    <path d="M 142.246853 65.462583 
L 145.046853 66.862583 
L 142.246853 68.262583 
z
" clip-path="url(#p2d94eae8eb)" style="stroke: #000000; stroke-linecap: round"/>
   </g>
   <g id="PathCollection_1">
    <defs>
     <path id="C0_0_83e6ef2748" d="M 0 1.322876 
C 0.350831 1.322876 0.68734 1.183489 0.935414 0.935414 
C 1.183489 0.68734 1.322876 0.350831 1.322876 -0 
C 1.322876 -0.350831 1.183489 -0.68734 0.935414 -0.935414 
C 0.68734 -1.183489 0.350831 -1.322876 0 -1.322876 
C -0.350831 -1.322876 -0.68734 -1.183489 -0.935414 -0.935414 
C -1.183489 -0.68734 -1.322876 -0.350831 -1.322876 0 
C -1.322876 0.350831 -1.183489 0.68734 -0.935414 0.935414 
C -0.68734 1.183489 -0.350831 1.322876 0 1.322876 
z
"/>
    </defs>
    <g clip-path="url(#p2d94eae8eb)">
     <use xlink:href="#C0_0_83e6ef2748" x="402.502952" y="56.236845" style="fill: #ff0000; stroke: #ff0000"/>
    </g>
    <g clip-path="url(#p2d94eae8eb)">
     <use xlink:href="#C0_0_83e6ef2748" x="402.502952" y="66.862583" style="stroke: #000000"/>
    </g>
    <g clip-path="url(#p2d94eae8eb)">
     <use xlink:href="#C0_0_83e6ef2748" x="402.627222" y="50.624865" style="stroke: #000000"/>
    </g>
    <g clip-path="url(#p2d94eae8eb)">
     <use xlink:href="#C0_0_83e6ef2748" x="405.377365" y="60.88854" style="stroke: #000000"/>
    </g>
    <g clip-path="url(#p2d94eae8eb)">
     <use xlink:href="#C0_0_83e6ef2748" x="317.497048" y="56.236845" style="fill: #ff0000; stroke: #ff0000"/>
    </g>
    <g clip-path="url(#p2d94eae8eb)">
     <use xlink:href="#C0_0_83e6ef2748" x="317.497048" y="66.862583" style="stroke: #000000"/>
    </g>
    <g clip-path="url(#p2d94eae8eb)">
     <use xlink:href="#C0_0_83e6ef2748" x="320.371462" y="62.210889" style="stroke: #000000"/>
    </g>
    <g clip-path="url(#p2d94eae8eb)">
     <use xlink:href="#C0_0_83e6ef2748" x="317.621319" y="72.474563" style="fill: #ff0000; stroke: #ff0000"/>
    </g>
    <g clip-path="url(#p2d94eae8eb)">
     <use xlink:href="#C0_0_83e6ef2748" x="487.508855" y="56.236845" style="fill: #ff0000; stroke: #ff0000"/>
    </g>
    <g clip-path="url(#p2d94eae8eb)">
     <use xlink:href="#C0_0_83e6ef2748" x="487.508855" y="66.862583" style="stroke: #000000"/>
    </g>
    <g clip-path="url(#p2d94eae8eb)">
     <use xlink:href="#C0_0_83e6ef2748" x="572.514758" y="56.236845" style="fill: #ff0000; stroke: #ff0000"/>
    </g>
    <g clip-path="url(#p2d94eae8eb)">
     <use xlink:href="#C0_0_83e6ef2748" x="572.514758" y="66.862583" style="stroke: #000000"/>
    </g>
    <g clip-path="url(#p2d94eae8eb)">
     <use xlink:href="#C0_0_83e6ef2748" x="484.634441" y="16.656294" style="stroke: #000000"/>
    </g>
    <g clip-path="url(#p2d94eae8eb)">
     <use xlink:href="#C0_0_83e6ef2748" x="487.384585" y="26.919969" style="stroke: #000000"/>
    </g>
    <g clip-path="url(#p2d94eae8eb)">
     <use xlink:href="#C0_0_83e6ef2748" x="572.514758" y="10.682182" style="stroke: #000000"/>
    </g>
    <g clip-path="url(#p2d94eae8eb)">
     <use xlink:href="#C0_0_83e6ef2748" x="572.514758" y="21.30792" style="stroke: #000000"/>
    </g>
    <g clip-path="url(#p2d94eae8eb)">
     <use xlink:href="#C0_0_83e6ef2748" x="402.378681" y="96.17946" style="stroke: #000000"/>
    </g>
    <g clip-path="url(#p2d94eae8eb)">
     <use xlink:href="#C0_0_83e6ef2748" x="399.628538" y="106.443135" style="fill: #ff0000; stroke: #ff0000"/>
    </g>
    <g clip-path="url(#p2d94eae8eb)">
     <use xlink:href="#C0_0_83e6ef2748" x="487.508855" y="101.791509" style="stroke: #000000"/>
    </g>
    <g clip-path="url(#p2d94eae8eb)">
     <use xlink:href="#C0_0_83e6ef2748" x="487.508855" y="112.417247" style="fill: #ff0000; stroke: #ff0000"/>
    </g>
    <g clip-path="url(#p2d94eae8eb)">
     <use xlink:href="#C0_0_83e6ef2748" x="232.491145" y="66.862583" style="stroke: #000000"/>
    </g>
    <g clip-path="url(#p2d94eae8eb)">
     <use xlink:href="#C0_0_83e6ef2748" x="232.491145" y="56.236845" style="stroke: #000000"/>
    </g>
    <g clip-path="url(#p2d94eae8eb)">
     <use xlink:href="#C0_0_83e6ef2748" x="572.514758" y="101.791509" style="stroke: #000000"/>
    </g>
    <g clip-path="url(#p2d94eae8eb)">
     <use xlink:href="#C0_0_83e6ef2748" x="572.514758" y="112.417247" style="fill: #ff0000; stroke: #ff0000"/>
    </g>
    <g clip-path="url(#p2d94eae8eb)">
     <use xlink:href="#C0_0_83e6ef2748" x="657.520661" y="56.236845" style="stroke: #000000"/>
    </g>
    <g clip-path="url(#p2d94eae8eb)">
     <use xlink:href="#C0_0_83e6ef2748" x="657.520661" y="66.862583" style="stroke: #000000"/>
    </g>
    <g clip-path="url(#p2d94eae8eb)">
     <use xlink:href="#C0_0_83e6ef2748" x="657.520661" y="10.682182" style="stroke: #000000"/>
    </g>
    <g clip-path="url(#p2d94eae8eb)">
     <use xlink:href="#C0_0_83e6ef2748" x="657.520661" y="21.30792" style="stroke: #000000"/>
    </g>
    <g clip-path="url(#p2d94eae8eb)">
     <use xlink:href="#C0_0_83e6ef2748" x="147.485242" y="66.862583" style="stroke: #000000"/>
    </g>
    <g clip-path="url(#p2d94eae8eb)">
     <use xlink:href="#C0_0_83e6ef2748" x="147.485242" y="56.236845" style="stroke: #000000"/>
    </g>
    <g clip-path="url(#p2d94eae8eb)">
     <use xlink:href="#C0_0_83e6ef2748" x="62.479339" y="66.862583" style="stroke: #000000"/>
    </g>
    <g clip-path="url(#p2d94eae8eb)">
     <use xlink:href="#C0_0_83e6ef2748" x="62.479339" y="56.236845" style="stroke: #000000"/>
    </g>
   </g>
   <g id="text_1">
    <g clip-path="url(#p2d94eae8eb)">
     <!-- 4.b_a -->
     <g transform="translate(398.450373 57.022939) scale(0.03 -0.03)">
      <defs>
       <path id="DejaVuSans-34" d="M 2419 4116 
L 825 1625 
L 2419 1625 
L 2419 4116 
z
M 2253 4666 
L 3047 4666 
L 3047 1625 
L 3713 1625 
L 3713 1100 
L 3047 1100 
L 3047 0 
L 2419 0 
L 2419 1100 
L 313 1100 
L 313 1709 
L 2253 4666 
z
" transform="scale(0.015625)"/>
       <path id="DejaVuSans-2e" d="M 684 794 
L 1344 794 
L 1344 0 
L 684 0 
L 684 794 
z
" transform="scale(0.015625)"/>
       <path id="DejaVuSans-62" d="M 3116 1747 
Q 3116 2381 2855 2742 
Q 2594 3103 2138 3103 
Q 1681 3103 1420 2742 
Q 1159 2381 1159 1747 
Q 1159 1113 1420 752 
Q 1681 391 2138 391 
Q 2594 391 2855 752 
Q 3116 1113 3116 1747 
z
M 1159 2969 
Q 1341 3281 1617 3432 
Q 1894 3584 2278 3584 
Q 2916 3584 3314 3078 
Q 3713 2572 3713 1747 
Q 3713 922 3314 415 
Q 2916 -91 2278 -91 
Q 1894 -91 1617 61 
Q 1341 213 1159 525 
L 1159 0 
L 581 0 
L 581 4863 
L 1159 4863 
L 1159 2969 
z
" transform="scale(0.015625)"/>
       <path id="DejaVuSans-5f" d="M 3263 -1063 
L 3263 -1509 
L -63 -1509 
L -63 -1063 
L 3263 -1063 
z
" transform="scale(0.015625)"/>
       <path id="DejaVuSans-61" d="M 2194 1759 
Q 1497 1759 1228 1600 
Q 959 1441 959 1056 
Q 959 750 1161 570 
Q 1363 391 1709 391 
Q 2188 391 2477 730 
Q 2766 1069 2766 1631 
L 2766 1759 
L 2194 1759 
z
M 3341 1997 
L 3341 0 
L 2766 0 
L 2766 531 
Q 2569 213 2275 61 
Q 1981 -91 1556 -91 
Q 1019 -91 701 211 
Q 384 513 384 1019 
Q 384 1609 779 1909 
Q 1175 2209 1959 2209 
L 2766 2209 
L 2766 2266 
Q 2766 2663 2505 2880 
Q 2244 3097 1772 3097 
Q 1472 3097 1187 3025 
Q 903 2953 641 2809 
L 641 3341 
Q 956 3463 1253 3523 
Q 1550 3584 1831 3584 
Q 2591 3584 2966 3190 
Q 3341 2797 3341 1997 
z
" transform="scale(0.015625)"/>
      </defs>
      <use xlink:href="#DejaVuSans-34"/>
      <use xlink:href="#DejaVuSans-2e" transform="translate(63.623047 0)"/>
      <use xlink:href="#DejaVuSans-62" transform="translate(95.410156 0)"/>
      <use xlink:href="#DejaVuSans-5f" transform="translate(158.886719 0)"/>
      <use xlink:href="#DejaVuSans-61" transform="translate(208.886719 0)"/>
     </g>
    </g>
   </g>
   <g id="text_2">
    <g clip-path="url(#p2d94eae8eb)">
     <!-- 4.a_b -->
     <g transform="translate(398.450373 67.648677) scale(0.03 -0.03)">
      <use xlink:href="#DejaVuSans-34"/>
      <use xlink:href="#DejaVuSans-2e" transform="translate(63.623047 0)"/>
      <use xlink:href="#DejaVuSans-61" transform="translate(95.410156 0)"/>
      <use xlink:href="#DejaVuSans-5f" transform="translate(156.689453 0)"/>
      <use xlink:href="#DejaVuSans-62" transform="translate(206.689453 0)"/>
     </g>
    </g>
   </g>
   <g id="text_3">
    <g clip-path="url(#p2d94eae8eb)">
     <!-- 4.c_a -->
     <g transform="translate(398.702144 51.36924) scale(0.03 -0.03)">
      <defs>
       <path id="DejaVuSans-63" d="M 3122 3366 
L 3122 2828 
Q 2878 2963 2633 3030 
Q 2388 3097 2138 3097 
Q 1578 3097 1268 2742 
Q 959 2388 959 1747 
Q 959 1106 1268 751 
Q 1578 397 2138 397 
Q 2388 397 2633 464 
Q 2878 531 3122 666 
L 3122 134 
Q 2881 22 2623 -34 
Q 2366 -91 2075 -91 
Q 1284 -91 818 406 
Q 353 903 353 1747 
Q 353 2603 823 3093 
Q 1294 3584 2113 3584 
Q 2378 3584 2631 3529 
Q 2884 3475 3122 3366 
z
" transform="scale(0.015625)"/>
      </defs>
      <use xlink:href="#DejaVuSans-34"/>
      <use xlink:href="#DejaVuSans-2e" transform="translate(63.623047 0)"/>
      <use xlink:href="#DejaVuSans-63" transform="translate(95.410156 0)"/>
      <use xlink:href="#DejaVuSans-5f" transform="translate(150.390625 0)"/>
      <use xlink:href="#DejaVuSans-61" transform="translate(200.390625 0)"/>
     </g>
    </g>
   </g>
   <g id="text_4">
    <g clip-path="url(#p2d94eae8eb)">
     <!-- 4.a_c -->
     <g transform="translate(401.452287 61.632915) scale(0.03 -0.03)">
      <use xlink:href="#DejaVuSans-34"/>
      <use xlink:href="#DejaVuSans-2e" transform="translate(63.623047 0)"/>
      <use xlink:href="#DejaVuSans-61" transform="translate(95.410156 0)"/>
      <use xlink:href="#DejaVuSans-5f" transform="translate(156.689453 0)"/>
      <use xlink:href="#DejaVuSans-63" transform="translate(206.689453 0)"/>
     </g>
    </g>
   </g>
   <g id="text_5">
    <g clip-path="url(#p2d94eae8eb)">
     <!-- 3.b_a -->
     <g transform="translate(313.44447 57.022939) scale(0.03 -0.03)">
      <defs>
       <path id="DejaVuSans-33" d="M 2597 2516 
Q 3050 2419 3304 2112 
Q 3559 1806 3559 1356 
Q 3559 666 3084 287 
Q 2609 -91 1734 -91 
Q 1441 -91 1130 -33 
Q 819 25 488 141 
L 488 750 
Q 750 597 1062 519 
Q 1375 441 1716 441 
Q 2309 441 2620 675 
Q 2931 909 2931 1356 
Q 2931 1769 2642 2001 
Q 2353 2234 1838 2234 
L 1294 2234 
L 1294 2753 
L 1863 2753 
Q 2328 2753 2575 2939 
Q 2822 3125 2822 3475 
Q 2822 3834 2567 4026 
Q 2313 4219 1838 4219 
Q 1578 4219 1281 4162 
Q 984 4106 628 3988 
L 628 4550 
Q 988 4650 1302 4700 
Q 1616 4750 1894 4750 
Q 2613 4750 3031 4423 
Q 3450 4097 3450 3541 
Q 3450 3153 3228 2886 
Q 3006 2619 2597 2516 
z
" transform="scale(0.015625)"/>
      </defs>
      <use xlink:href="#DejaVuSans-33"/>
      <use xlink:href="#DejaVuSans-2e" transform="translate(63.623047 0)"/>
      <use xlink:href="#DejaVuSans-62" transform="translate(95.410156 0)"/>
      <use xlink:href="#DejaVuSans-5f" transform="translate(158.886719 0)"/>
      <use xlink:href="#DejaVuSans-61" transform="translate(208.886719 0)"/>
     </g>
    </g>
   </g>
   <g id="text_6">
    <g clip-path="url(#p2d94eae8eb)">
     <!-- 3.a_b -->
     <g transform="translate(313.44447 67.648677) scale(0.03 -0.03)">
      <use xlink:href="#DejaVuSans-33"/>
      <use xlink:href="#DejaVuSans-2e" transform="translate(63.623047 0)"/>
      <use xlink:href="#DejaVuSans-61" transform="translate(95.410156 0)"/>
      <use xlink:href="#DejaVuSans-5f" transform="translate(156.689453 0)"/>
      <use xlink:href="#DejaVuSans-62" transform="translate(206.689453 0)"/>
     </g>
    </g>
   </g>
   <g id="text_7">
    <g clip-path="url(#p2d94eae8eb)">
     <!-- 3.c_a -->
     <g transform="translate(316.446384 62.970498) scale(0.03 -0.03)">
      <use xlink:href="#DejaVuSans-33"/>
      <use xlink:href="#DejaVuSans-2e" transform="translate(63.623047 0)"/>
      <use xlink:href="#DejaVuSans-63" transform="translate(95.410156 0)"/>
      <use xlink:href="#DejaVuSans-5f" transform="translate(150.390625 0)"/>
      <use xlink:href="#DejaVuSans-61" transform="translate(200.390625 0)"/>
     </g>
    </g>
   </g>
   <g id="text_8">
    <g clip-path="url(#p2d94eae8eb)">
     <!-- 3.a_c -->
     <g transform="translate(313.69624 73.234173) scale(0.03 -0.03)">
      <use xlink:href="#DejaVuSans-33"/>
      <use xlink:href="#DejaVuSans-2e" transform="translate(63.623047 0)"/>
      <use xlink:href="#DejaVuSans-61" transform="translate(95.410156 0)"/>
      <use xlink:href="#DejaVuSans-5f" transform="translate(156.689453 0)"/>
      <use xlink:href="#DejaVuSans-63" transform="translate(206.689453 0)"/>
     </g>
    </g>
   </g>
   <g id="text_9">
    <g clip-path="url(#p2d94eae8eb)">
     <!-- 5.b_a -->
     <g transform="translate(483.456277 57.022939) scale(0.03 -0.03)">
      <defs>
       <path id="DejaVuSans-35" d="M 691 4666 
L 3169 4666 
L 3169 4134 
L 1269 4134 
L 1269 2991 
Q 1406 3038 1543 3061 
Q 1681 3084 1819 3084 
Q 2600 3084 3056 2656 
Q 3513 2228 3513 1497 
Q 3513 744 3044 326 
Q 2575 -91 1722 -91 
Q 1428 -91 1123 -41 
Q 819 9 494 109 
L 494 744 
Q 775 591 1075 516 
Q 1375 441 1709 441 
Q 2250 441 2565 725 
Q 2881 1009 2881 1497 
Q 2881 1984 2565 2268 
Q 2250 2553 1709 2553 
Q 1456 2553 1204 2497 
Q 953 2441 691 2322 
L 691 4666 
z
" transform="scale(0.015625)"/>
      </defs>
      <use xlink:href="#DejaVuSans-35"/>
      <use xlink:href="#DejaVuSans-2e" transform="translate(63.623047 0)"/>
      <use xlink:href="#DejaVuSans-62" transform="translate(95.410156 0)"/>
      <use xlink:href="#DejaVuSans-5f" transform="translate(158.886719 0)"/>
      <use xlink:href="#DejaVuSans-61" transform="translate(208.886719 0)"/>
     </g>
    </g>
   </g>
   <g id="text_10">
    <g clip-path="url(#p2d94eae8eb)">
     <!-- 5.a_b -->
     <g transform="translate(483.456277 67.648677) scale(0.03 -0.03)">
      <use xlink:href="#DejaVuSans-35"/>
      <use xlink:href="#DejaVuSans-2e" transform="translate(63.623047 0)"/>
      <use xlink:href="#DejaVuSans-61" transform="translate(95.410156 0)"/>
      <use xlink:href="#DejaVuSans-5f" transform="translate(156.689453 0)"/>
      <use xlink:href="#DejaVuSans-62" transform="translate(206.689453 0)"/>
     </g>
    </g>
   </g>
   <g id="text_11">
    <g clip-path="url(#p2d94eae8eb)">
     <!-- 6.b_a -->
     <g transform="translate(568.46218 57.022939) scale(0.03 -0.03)">
      <defs>
       <path id="DejaVuSans-36" d="M 2113 2584 
Q 1688 2584 1439 2293 
Q 1191 2003 1191 1497 
Q 1191 994 1439 701 
Q 1688 409 2113 409 
Q 2538 409 2786 701 
Q 3034 994 3034 1497 
Q 3034 2003 2786 2293 
Q 2538 2584 2113 2584 
z
M 3366 4563 
L 3366 3988 
Q 3128 4100 2886 4159 
Q 2644 4219 2406 4219 
Q 1781 4219 1451 3797 
Q 1122 3375 1075 2522 
Q 1259 2794 1537 2939 
Q 1816 3084 2150 3084 
Q 2853 3084 3261 2657 
Q 3669 2231 3669 1497 
Q 3669 778 3244 343 
Q 2819 -91 2113 -91 
Q 1303 -91 875 529 
Q 447 1150 447 2328 
Q 447 3434 972 4092 
Q 1497 4750 2381 4750 
Q 2619 4750 2861 4703 
Q 3103 4656 3366 4563 
z
" transform="scale(0.015625)"/>
      </defs>
      <use xlink:href="#DejaVuSans-36"/>
      <use xlink:href="#DejaVuSans-2e" transform="translate(63.623047 0)"/>
      <use xlink:href="#DejaVuSans-62" transform="translate(95.410156 0)"/>
      <use xlink:href="#DejaVuSans-5f" transform="translate(158.886719 0)"/>
      <use xlink:href="#DejaVuSans-61" transform="translate(208.886719 0)"/>
     </g>
    </g>
   </g>
   <g id="text_12">
    <g clip-path="url(#p2d94eae8eb)">
     <!-- 6.a_b -->
     <g transform="translate(568.46218 67.648677) scale(0.03 -0.03)">
      <use xlink:href="#DejaVuSans-36"/>
      <use xlink:href="#DejaVuSans-2e" transform="translate(63.623047 0)"/>
      <use xlink:href="#DejaVuSans-61" transform="translate(95.410156 0)"/>
      <use xlink:href="#DejaVuSans-5f" transform="translate(156.689453 0)"/>
      <use xlink:href="#DejaVuSans-62" transform="translate(206.689453 0)"/>
     </g>
    </g>
   </g>
   <g id="text_13">
    <g clip-path="url(#p2d94eae8eb)">
     <!-- 7.b_a -->
     <g transform="translate(480.581863 17.442388) scale(0.03 -0.03)">
      <defs>
       <path id="DejaVuSans-37" d="M 525 4666 
L 3525 4666 
L 3525 4397 
L 1831 0 
L 1172 0 
L 2766 4134 
L 525 4134 
L 525 4666 
z
" transform="scale(0.015625)"/>
      </defs>
      <use xlink:href="#DejaVuSans-37"/>
      <use xlink:href="#DejaVuSans-2e" transform="translate(63.623047 0)"/>
      <use xlink:href="#DejaVuSans-62" transform="translate(95.410156 0)"/>
      <use xlink:href="#DejaVuSans-5f" transform="translate(158.886719 0)"/>
      <use xlink:href="#DejaVuSans-61" transform="translate(208.886719 0)"/>
     </g>
    </g>
   </g>
   <g id="text_14">
    <g clip-path="url(#p2d94eae8eb)">
     <!-- 7.a_b -->
     <g transform="translate(483.332007 27.706062) scale(0.03 -0.03)">
      <use xlink:href="#DejaVuSans-37"/>
      <use xlink:href="#DejaVuSans-2e" transform="translate(63.623047 0)"/>
      <use xlink:href="#DejaVuSans-61" transform="translate(95.410156 0)"/>
      <use xlink:href="#DejaVuSans-5f" transform="translate(156.689453 0)"/>
      <use xlink:href="#DejaVuSans-62" transform="translate(206.689453 0)"/>
     </g>
    </g>
   </g>
   <g id="text_15">
    <g clip-path="url(#p2d94eae8eb)">
     <!-- 8.b_a -->
     <g transform="translate(568.46218 11.468276) scale(0.03 -0.03)">
      <defs>
       <path id="DejaVuSans-38" d="M 2034 2216 
Q 1584 2216 1326 1975 
Q 1069 1734 1069 1313 
Q 1069 891 1326 650 
Q 1584 409 2034 409 
Q 2484 409 2743 651 
Q 3003 894 3003 1313 
Q 3003 1734 2745 1975 
Q 2488 2216 2034 2216 
z
M 1403 2484 
Q 997 2584 770 2862 
Q 544 3141 544 3541 
Q 544 4100 942 4425 
Q 1341 4750 2034 4750 
Q 2731 4750 3128 4425 
Q 3525 4100 3525 3541 
Q 3525 3141 3298 2862 
Q 3072 2584 2669 2484 
Q 3125 2378 3379 2068 
Q 3634 1759 3634 1313 
Q 3634 634 3220 271 
Q 2806 -91 2034 -91 
Q 1263 -91 848 271 
Q 434 634 434 1313 
Q 434 1759 690 2068 
Q 947 2378 1403 2484 
z
M 1172 3481 
Q 1172 3119 1398 2916 
Q 1625 2713 2034 2713 
Q 2441 2713 2670 2916 
Q 2900 3119 2900 3481 
Q 2900 3844 2670 4047 
Q 2441 4250 2034 4250 
Q 1625 4250 1398 4047 
Q 1172 3844 1172 3481 
z
" transform="scale(0.015625)"/>
      </defs>
      <use xlink:href="#DejaVuSans-38"/>
      <use xlink:href="#DejaVuSans-2e" transform="translate(63.623047 0)"/>
      <use xlink:href="#DejaVuSans-62" transform="translate(95.410156 0)"/>
      <use xlink:href="#DejaVuSans-5f" transform="translate(158.886719 0)"/>
      <use xlink:href="#DejaVuSans-61" transform="translate(208.886719 0)"/>
     </g>
    </g>
   </g>
   <g id="text_16">
    <g clip-path="url(#p2d94eae8eb)">
     <!-- 8.a_b -->
     <g transform="translate(568.46218 22.094013) scale(0.03 -0.03)">
      <use xlink:href="#DejaVuSans-38"/>
      <use xlink:href="#DejaVuSans-2e" transform="translate(63.623047 0)"/>
      <use xlink:href="#DejaVuSans-61" transform="translate(95.410156 0)"/>
      <use xlink:href="#DejaVuSans-5f" transform="translate(156.689453 0)"/>
      <use xlink:href="#DejaVuSans-62" transform="translate(206.689453 0)"/>
     </g>
    </g>
   </g>
   <g id="text_17">
    <g clip-path="url(#p2d94eae8eb)">
     <!-- 9.b_a -->
     <g transform="translate(398.326103 96.965554) scale(0.03 -0.03)">
      <defs>
       <path id="DejaVuSans-39" d="M 703 97 
L 703 672 
Q 941 559 1184 500 
Q 1428 441 1663 441 
Q 2288 441 2617 861 
Q 2947 1281 2994 2138 
Q 2813 1869 2534 1725 
Q 2256 1581 1919 1581 
Q 1219 1581 811 2004 
Q 403 2428 403 3163 
Q 403 3881 828 4315 
Q 1253 4750 1959 4750 
Q 2769 4750 3195 4129 
Q 3622 3509 3622 2328 
Q 3622 1225 3098 567 
Q 2575 -91 1691 -91 
Q 1453 -91 1209 -44 
Q 966 3 703 97 
z
M 1959 2075 
Q 2384 2075 2632 2365 
Q 2881 2656 2881 3163 
Q 2881 3666 2632 3958 
Q 2384 4250 1959 4250 
Q 1534 4250 1286 3958 
Q 1038 3666 1038 3163 
Q 1038 2656 1286 2365 
Q 1534 2075 1959 2075 
z
" transform="scale(0.015625)"/>
      </defs>
      <use xlink:href="#DejaVuSans-39"/>
      <use xlink:href="#DejaVuSans-2e" transform="translate(63.623047 0)"/>
      <use xlink:href="#DejaVuSans-62" transform="translate(95.410156 0)"/>
      <use xlink:href="#DejaVuSans-5f" transform="translate(158.886719 0)"/>
      <use xlink:href="#DejaVuSans-61" transform="translate(208.886719 0)"/>
     </g>
    </g>
   </g>
   <g id="text_18">
    <g clip-path="url(#p2d94eae8eb)">
     <!-- 9.a_b -->
     <g transform="translate(395.57596 107.229228) scale(0.03 -0.03)">
      <use xlink:href="#DejaVuSans-39"/>
      <use xlink:href="#DejaVuSans-2e" transform="translate(63.623047 0)"/>
      <use xlink:href="#DejaVuSans-61" transform="translate(95.410156 0)"/>
      <use xlink:href="#DejaVuSans-5f" transform="translate(156.689453 0)"/>
      <use xlink:href="#DejaVuSans-62" transform="translate(206.689453 0)"/>
     </g>
    </g>
   </g>
   <g id="text_19">
    <g clip-path="url(#p2d94eae8eb)">
     <!-- 10.b_a -->
     <g transform="translate(482.501902 102.577603) scale(0.03 -0.03)">
      <defs>
       <path id="DejaVuSans-31" d="M 794 531 
L 1825 531 
L 1825 4091 
L 703 3866 
L 703 4441 
L 1819 4666 
L 2450 4666 
L 2450 531 
L 3481 531 
L 3481 0 
L 794 0 
L 794 531 
z
" transform="scale(0.015625)"/>
       <path id="DejaVuSans-30" d="M 2034 4250 
Q 1547 4250 1301 3770 
Q 1056 3291 1056 2328 
Q 1056 1369 1301 889 
Q 1547 409 2034 409 
Q 2525 409 2770 889 
Q 3016 1369 3016 2328 
Q 3016 3291 2770 3770 
Q 2525 4250 2034 4250 
z
M 2034 4750 
Q 2819 4750 3233 4129 
Q 3647 3509 3647 2328 
Q 3647 1150 3233 529 
Q 2819 -91 2034 -91 
Q 1250 -91 836 529 
Q 422 1150 422 2328 
Q 422 3509 836 4129 
Q 1250 4750 2034 4750 
z
" transform="scale(0.015625)"/>
      </defs>
      <use xlink:href="#DejaVuSans-31"/>
      <use xlink:href="#DejaVuSans-30" transform="translate(63.623047 0)"/>
      <use xlink:href="#DejaVuSans-2e" transform="translate(127.246094 0)"/>
      <use xlink:href="#DejaVuSans-62" transform="translate(159.033203 0)"/>
      <use xlink:href="#DejaVuSans-5f" transform="translate(222.509766 0)"/>
      <use xlink:href="#DejaVuSans-61" transform="translate(272.509766 0)"/>
     </g>
    </g>
   </g>
   <g id="text_20">
    <g clip-path="url(#p2d94eae8eb)">
     <!-- 10.a_b -->
     <g transform="translate(482.501902 113.203341) scale(0.03 -0.03)">
      <use xlink:href="#DejaVuSans-31"/>
      <use xlink:href="#DejaVuSans-30" transform="translate(63.623047 0)"/>
      <use xlink:href="#DejaVuSans-2e" transform="translate(127.246094 0)"/>
      <use xlink:href="#DejaVuSans-61" transform="translate(159.033203 0)"/>
      <use xlink:href="#DejaVuSans-5f" transform="translate(220.3125 0)"/>
      <use xlink:href="#DejaVuSans-62" transform="translate(270.3125 0)"/>
     </g>
    </g>
   </g>
   <g id="text_21">
    <g clip-path="url(#p2d94eae8eb)">
     <!-- 2.b_a -->
     <g transform="translate(228.438567 67.648677) scale(0.03 -0.03)">
      <defs>
       <path id="DejaVuSans-32" d="M 1228 531 
L 3431 531 
L 3431 0 
L 469 0 
L 469 531 
Q 828 903 1448 1529 
Q 2069 2156 2228 2338 
Q 2531 2678 2651 2914 
Q 2772 3150 2772 3378 
Q 2772 3750 2511 3984 
Q 2250 4219 1831 4219 
Q 1534 4219 1204 4116 
Q 875 4013 500 3803 
L 500 4441 
Q 881 4594 1212 4672 
Q 1544 4750 1819 4750 
Q 2544 4750 2975 4387 
Q 3406 4025 3406 3419 
Q 3406 3131 3298 2873 
Q 3191 2616 2906 2266 
Q 2828 2175 2409 1742 
Q 1991 1309 1228 531 
z
" transform="scale(0.015625)"/>
      </defs>
      <use xlink:href="#DejaVuSans-32"/>
      <use xlink:href="#DejaVuSans-2e" transform="translate(63.623047 0)"/>
      <use xlink:href="#DejaVuSans-62" transform="translate(95.410156 0)"/>
      <use xlink:href="#DejaVuSans-5f" transform="translate(158.886719 0)"/>
      <use xlink:href="#DejaVuSans-61" transform="translate(208.886719 0)"/>
     </g>
    </g>
   </g>
   <g id="text_22">
    <g clip-path="url(#p2d94eae8eb)">
     <!-- 2.a_b -->
     <g transform="translate(228.438567 57.022939) scale(0.03 -0.03)">
      <use xlink:href="#DejaVuSans-32"/>
      <use xlink:href="#DejaVuSans-2e" transform="translate(63.623047 0)"/>
      <use xlink:href="#DejaVuSans-61" transform="translate(95.410156 0)"/>
      <use xlink:href="#DejaVuSans-5f" transform="translate(156.689453 0)"/>
      <use xlink:href="#DejaVuSans-62" transform="translate(206.689453 0)"/>
     </g>
    </g>
   </g>
   <g id="text_23">
    <g clip-path="url(#p2d94eae8eb)">
     <!-- 11.b_a -->
     <g transform="translate(567.507805 102.577603) scale(0.03 -0.03)">
      <use xlink:href="#DejaVuSans-31"/>
      <use xlink:href="#DejaVuSans-31" transform="translate(63.623047 0)"/>
      <use xlink:href="#DejaVuSans-2e" transform="translate(127.246094 0)"/>
      <use xlink:href="#DejaVuSans-62" transform="translate(159.033203 0)"/>
      <use xlink:href="#DejaVuSans-5f" transform="translate(222.509766 0)"/>
      <use xlink:href="#DejaVuSans-61" transform="translate(272.509766 0)"/>
     </g>
    </g>
   </g>
   <g id="text_24">
    <g clip-path="url(#p2d94eae8eb)">
     <!-- 11.a_b -->
     <g transform="translate(567.507805 113.203341) scale(0.03 -0.03)">
      <use xlink:href="#DejaVuSans-31"/>
      <use xlink:href="#DejaVuSans-31" transform="translate(63.623047 0)"/>
      <use xlink:href="#DejaVuSans-2e" transform="translate(127.246094 0)"/>
      <use xlink:href="#DejaVuSans-61" transform="translate(159.033203 0)"/>
      <use xlink:href="#DejaVuSans-5f" transform="translate(220.3125 0)"/>
      <use xlink:href="#DejaVuSans-62" transform="translate(270.3125 0)"/>
     </g>
    </g>
   </g>
   <g id="text_25">
    <g clip-path="url(#p2d94eae8eb)">
     <!-- 12.b_a -->
     <g transform="translate(652.513708 57.022939) scale(0.03 -0.03)">
      <use xlink:href="#DejaVuSans-31"/>
      <use xlink:href="#DejaVuSans-32" transform="translate(63.623047 0)"/>
      <use xlink:href="#DejaVuSans-2e" transform="translate(127.246094 0)"/>
      <use xlink:href="#DejaVuSans-62" transform="translate(159.033203 0)"/>
      <use xlink:href="#DejaVuSans-5f" transform="translate(222.509766 0)"/>
      <use xlink:href="#DejaVuSans-61" transform="translate(272.509766 0)"/>
     </g>
    </g>
   </g>
   <g id="text_26">
    <g clip-path="url(#p2d94eae8eb)">
     <!-- 12.a_b -->
     <g transform="translate(652.513708 67.648677) scale(0.03 -0.03)">
      <use xlink:href="#DejaVuSans-31"/>
      <use xlink:href="#DejaVuSans-32" transform="translate(63.623047 0)"/>
      <use xlink:href="#DejaVuSans-2e" transform="translate(127.246094 0)"/>
      <use xlink:href="#DejaVuSans-61" transform="translate(159.033203 0)"/>
      <use xlink:href="#DejaVuSans-5f" transform="translate(220.3125 0)"/>
      <use xlink:href="#DejaVuSans-62" transform="translate(270.3125 0)"/>
     </g>
    </g>
   </g>
   <g id="text_27">
    <g clip-path="url(#p2d94eae8eb)">
     <!-- 13.b_a -->
     <g transform="translate(652.513708 11.468276) scale(0.03 -0.03)">
      <use xlink:href="#DejaVuSans-31"/>
      <use xlink:href="#DejaVuSans-33" transform="translate(63.623047 0)"/>
      <use xlink:href="#DejaVuSans-2e" transform="translate(127.246094 0)"/>
      <use xlink:href="#DejaVuSans-62" transform="translate(159.033203 0)"/>
      <use xlink:href="#DejaVuSans-5f" transform="translate(222.509766 0)"/>
      <use xlink:href="#DejaVuSans-61" transform="translate(272.509766 0)"/>
     </g>
    </g>
   </g>
   <g id="text_28">
    <g clip-path="url(#p2d94eae8eb)">
     <!-- 13.a_b -->
     <g transform="translate(652.513708 22.094013) scale(0.03 -0.03)">
      <use xlink:href="#DejaVuSans-31"/>
      <use xlink:href="#DejaVuSans-33" transform="translate(63.623047 0)"/>
      <use xlink:href="#DejaVuSans-2e" transform="translate(127.246094 0)"/>
      <use xlink:href="#DejaVuSans-61" transform="translate(159.033203 0)"/>
      <use xlink:href="#DejaVuSans-5f" transform="translate(220.3125 0)"/>
      <use xlink:href="#DejaVuSans-62" transform="translate(270.3125 0)"/>
     </g>
    </g>
   </g>
   <g id="text_29">
    <g clip-path="url(#p2d94eae8eb)">
     <!-- 14.b_a -->
     <g transform="translate(142.478289 67.648677) scale(0.03 -0.03)">
      <use xlink:href="#DejaVuSans-31"/>
      <use xlink:href="#DejaVuSans-34" transform="translate(63.623047 0)"/>
      <use xlink:href="#DejaVuSans-2e" transform="translate(127.246094 0)"/>
      <use xlink:href="#DejaVuSans-62" transform="translate(159.033203 0)"/>
      <use xlink:href="#DejaVuSans-5f" transform="translate(222.509766 0)"/>
      <use xlink:href="#DejaVuSans-61" transform="translate(272.509766 0)"/>
     </g>
    </g>
   </g>
   <g id="text_30">
    <g clip-path="url(#p2d94eae8eb)">
     <!-- 14.a_b -->
     <g transform="translate(142.478289 57.022939) scale(0.03 -0.03)">
      <use xlink:href="#DejaVuSans-31"/>
      <use xlink:href="#DejaVuSans-34" transform="translate(63.623047 0)"/>
      <use xlink:href="#DejaVuSans-2e" transform="translate(127.246094 0)"/>
      <use xlink:href="#DejaVuSans-61" transform="translate(159.033203 0)"/>
      <use xlink:href="#DejaVuSans-5f" transform="translate(220.3125 0)"/>
      <use xlink:href="#DejaVuSans-62" transform="translate(270.3125 0)"/>
     </g>
    </g>
   </g>
   <g id="text_31">
    <g clip-path="url(#p2d94eae8eb)">
     <!-- 15.b_a -->
     <g transform="translate(57.472386 67.648677) scale(0.03 -0.03)">
      <use xlink:href="#DejaVuSans-31"/>
      <use xlink:href="#DejaVuSans-35" transform="translate(63.623047 0)"/>
      <use xlink:href="#DejaVuSans-2e" transform="translate(127.246094 0)"/>
      <use xlink:href="#DejaVuSans-62" transform="translate(159.033203 0)"/>
      <use xlink:href="#DejaVuSans-5f" transform="translate(222.509766 0)"/>
      <use xlink:href="#DejaVuSans-61" transform="translate(272.509766 0)"/>
     </g>
    </g>
   </g>
   <g id="text_32">
    <g clip-path="url(#p2d94eae8eb)">
     <!-- 15.a_b -->
     <g transform="translate(57.472386 57.022939) scale(0.03 -0.03)">
      <use xlink:href="#DejaVuSans-31"/>
      <use xlink:href="#DejaVuSans-35" transform="translate(63.623047 0)"/>
      <use xlink:href="#DejaVuSans-2e" transform="translate(127.246094 0)"/>
      <use xlink:href="#DejaVuSans-61" transform="translate(159.033203 0)"/>
      <use xlink:href="#DejaVuSans-5f" transform="translate(220.3125 0)"/>
      <use xlink:href="#DejaVuSans-62" transform="translate(270.3125 0)"/>
     </g>
    </g>
   </g>
  </g>
 </g>
 <defs>
  <clipPath id="p2d94eae8eb">
   <rect x="0" y="0" width="720" height="123.099429"/>
  </clipPath>
 </defs>
</svg>
