<?xml version="1.0" encoding="utf-8" standalone="no"?>
<!DOCTYPE svg PUBLIC "-//W3C//DTD SVG 1.1//EN"
  "http://www.w3.org/Graphics/SVG/1.1/DTD/svg11.dtd">
<svg xmlns:xlink="http://www.w3.org/1999/xlink" width="1296pt" height="360pt" viewBox="0 0 1296 360" xmlns="http://www.w3.org/2000/svg" version="1.1">
 <metadata>
  <rdf:RDF xmlns:dc="http://purl.org/dc/elements/1.1/" xmlns:cc="http://creativecommons.org/ns#" xmlns:rdf="http://www.w3.org/1999/02/22-rdf-syntax-ns#">
   <cc:Work>
    <dc:type rdf:resource="http://purl.org/dc/dcmitype/StillImage"/>
    <dc:date>2026-05-13T17:33:22.575181</dc:date>
    <dc:format>image/svg+xml</dc:format>
    <dc:creator>
     <cc:Agent>
      <dc:title>Matplotlib v3.10.8, https://matplotlib.org/</dc:title>
     </cc:Agent>
    </dc:creator>
   </cc:Work>
  </rdf:RDF>
 </metadata>
 <defs>
  <style type="text/css">*{stroke-linejoin: round; stroke-linecap: butt}</style>
 </defs>
 <g id="figure_1">
  <g id="patch_1">
   <path d="M 0 360 
L 1296 360 
L 1296 0 
L 0 0 
z
" style="fill: #ffffff"/>
  </g>
  <g id="axes_1">
   <g id="patch_2">
    <path d="M 459.555333 328.760329 
Q 648.000398 328.760088 835.327429 328.75985 
" clip-path="url(#pf31dd7146e)" style="fill: none; stroke: #000000; stroke-linecap: round"/>
    <path d="M 831.327426 326.759855 
L 835.327429 328.75985 
L 831.327431 330.759855 
z
" clip-path="url(#pf31dd7146e)" style="stroke: #000000; stroke-linecap: round"/>
   </g>
   <g id="patch_3">
    <path d="M 839.324494 327.85863 
Q 1010.780874 208.958497 1181.318515 90.695483 
" clip-path="url(#pf31dd7146e)" style="fill: none; stroke: #000000; stroke-linecap: round"/>
    <path d="M 1176.891825 91.331419 
L 1181.318515 90.695483 
L 1179.171251 94.618397 
z
" clip-path="url(#pf31dd7146e)" style="stroke: #000000; stroke-linecap: round"/>
   </g>
   <g id="patch_4">
    <path d="M 465.945014 269.941889 
Q 294.488635 151.041756 123.950993 32.778742 
" clip-path="url(#pf31dd7146e)" style="fill: none; stroke: #000000; stroke-linecap: round"/>
    <path d="M 126.098257 36.701656 
L 123.950993 32.778742 
L 128.377683 33.414678 
z
" clip-path="url(#pf31dd7146e)" style="stroke: #000000; stroke-linecap: round"/>
   </g>
   <g id="patch_5">
    <path d="M 827.175017 270.842623 
Q 647.999292 270.842863 469.9416 270.843102 
" clip-path="url(#pf31dd7146e)" style="fill: none; stroke: #000000; stroke-linecap: round"/>
    <path d="M 473.941603 272.843096 
L 469.9416 270.843102 
L 473.941597 268.843096 
z
" clip-path="url(#pf31dd7146e)" style="stroke: #000000; stroke-linecap: round"/>
   </g>
   <g id="patch_6">
    <path d="M 113.762382 90.058596 
Q 285.218762 208.958729 455.756404 327.221743 
" clip-path="url(#pf31dd7146e)" style="fill: none; stroke: #000000; stroke-linecap: round"/>
    <path d="M 453.609139 323.298829 
L 455.756404 327.221743 
L 451.329714 326.585806 
z
" clip-path="url(#pf31dd7146e)" style="stroke: #000000; stroke-linecap: round"/>
   </g>
   <g id="patch_7">
    <path d="M 1172.968109 32.140886 
Q 1001.51173 151.041019 830.974088 269.304033 
" clip-path="url(#pf31dd7146e)" style="fill: none; stroke: #000000; stroke-linecap: round"/>
    <path d="M 835.400778 268.668096 
L 830.974088 269.304033 
L 833.121353 265.381119 
z
" clip-path="url(#pf31dd7146e)" style="stroke: #000000; stroke-linecap: round"/>
   </g>
   <g id="PathCollection_1">
    <defs>
     <path id="m8fcc2aa32a" d="M 0 1.581139 
C 0.419323 1.581139 0.821528 1.41454 1.118034 1.118034 
C 1.41454 0.821528 1.581139 0.419323 1.581139 0 
C 1.581139 -0.419323 1.41454 -0.821528 1.118034 -1.118034 
C 0.821528 -1.41454 0.419323 -1.581139 0 -1.581139 
C -0.419323 -1.581139 -0.821528 -1.41454 -1.118034 -1.118034 
C -1.41454 -0.821528 -1.581139 -0.419323 -1.581139 0 
C -1.581139 0.419323 -1.41454 0.821528 -1.118034 1.118034 
C -0.821528 1.41454 -0.419323 1.581139 0 1.581139 
z
" style="stroke: #1f78b4"/>
    </defs>
    <g clip-path="url(#pf31dd7146e)">
     <use xlink:href="#m8fcc2aa32a" x="457.975078" y="328.760331" style="fill: #1f78b4; stroke: #1f78b4"/>
     <use xlink:href="#m8fcc2aa32a" x="838.024922" y="328.759846" style="fill: #1f78b4; stroke: #1f78b4"/>
     <use xlink:href="#m8fcc2aa32a" x="467.244587" y="270.843105" style="fill: #1f78b4; stroke: #1f78b4"/>
     <use xlink:href="#m8fcc2aa32a" x="121.732318" y="31.240154" style="fill: #1f78b4; stroke: #1f78b4"/>
     <use xlink:href="#m8fcc2aa32a" x="1183.53719" y="89.156895" style="fill: #1f78b4; stroke: #1f78b4"/>
     <use xlink:href="#m8fcc2aa32a" x="828.755413" y="270.842621" style="fill: #1f78b4; stroke: #1f78b4"/>
     <use xlink:href="#m8fcc2aa32a" x="112.46281" y="89.157379" style="fill: #1f78b4; stroke: #1f78b4"/>
     <use xlink:href="#m8fcc2aa32a" x="1174.267682" y="31.239669" style="fill: #1f78b4; stroke: #1f78b4"/>
    </g>
   </g>
  </g>
 </g>
 <defs>
  <clipPath id="pf31dd7146e">
   <rect x="0" y="0" width="1296" height="360"/>
  </clipPath>
 </defs>
</svg>
